<svg width="41" height="40" viewBox="0 0 41 40" fill="none" xmlns="http://www.w3.org/2000/svg">
<path d="M0.5 19.0164C0.5 10.052 0.5 5.56977 3.28488 2.78488C6.06977 0 10.552 0 19.5164 0H21.4836C30.448 0 34.9302 0 37.7151 2.78488C40.5 5.56977 40.5 10.052 40.5 19.0164V20.9836C40.5 29.948 40.5 34.4302 37.7151 37.2151C34.9302 40 30.448 40 21.4836 40H19.5164C10.552 40 6.06977 40 3.28488 37.2151C0.5 34.4302 0.5 29.948 0.5 20.9836V19.0164Z" fill="#0077FF"/>
<path d="M9.34838 0.314006C11.9009 2.38418e-08 15.1856 0 19.5164 0L21.4836 0C25.8143 0 29.099 1.19209e-07 31.6516 0.314007C31.8172 0.562242 31.9 0.808256 31.9 1.06596C31.9 2.17512 30.3661 3.06769 27.2985 4.85285L27.0074 5.02226C23.9398 6.80741 22.4059 7.7 20.5 7.7C18.594 7.7 17.0602 6.80742 13.9925 5.02226L13.7014 4.85285C10.6338 3.06769 9.09998 2.17512 9.09998 1.06596C9.09998 0.808257 9.18278 0.562242 9.34838 0.314006Z" fill="#00D3E6"/>
<path d="M11.7763 8.45337C14.8789 10.2447 16.4303 11.1404 17.3942 12.8099C18.3581 14.4794 18.3581 16.2707 18.3581 19.8534V20.1934C18.3581 23.776 18.3581 25.5674 17.3942 26.1239C16.4303 26.6804 14.8789 25.7847 11.7763 23.9934L11.4818 23.8234C8.37913 22.032 6.82779 21.1364 5.8639 19.4669C4.90002 17.7974 4.90002 16.006 4.90002 12.4234L4.90002 12.0834C4.90002 8.5007 4.90002 6.70936 5.86391 6.15286C6.82779 5.59637 8.37913 6.49203 11.4818 8.28337L11.7763 8.45337Z" fill="#00D3E6"/>
<path d="M29.224 8.63916C26.1213 10.4305 24.57 11.3262 23.6061 12.9957C22.6422 14.6651 22.6422 16.4565 22.6422 20.0392L22.6422 20.3791C22.6422 23.9618 22.6422 25.7532 23.6061 26.3097C24.57 26.8662 26.1213 25.9705 29.224 24.1791L29.5184 24.0091C32.6211 22.2178 34.1725 21.3221 35.1364 19.6527C36.1002 17.9832 36.1002 16.1918 36.1002 12.6092V12.2692C36.1002 8.68649 36.1002 6.89515 35.1364 6.33865C34.1725 5.78216 32.6211 6.67782 29.5184 8.46916L29.224 8.63916Z" fill="white"/>
</svg>
