<svg width="20" height="21" viewBox="0 0 20 21" fill="none" xmlns="http://www.w3.org/2000/svg">
<path fill-rule="evenodd" clip-rule="evenodd" d="M8.35122 1.92857C6.60281 1.92857 5.83201 2.08259 5.04965 2.501C4.35308 2.87353 3.80213 3.42447 3.4296 4.12105C3.01119 4.90341 2.85718 5.6742 2.85718 7.42261V13.5774C2.85718 15.3258 3.01119 16.0966 3.4296 16.879C3.80213 17.5755 4.35308 18.1265 5.04965 18.499C5.83201 18.9174 6.60281 19.0714 8.35122 19.0714H11.6489C13.3973 19.0714 14.1681 18.9174 14.9504 18.499C15.647 18.1265 16.1979 17.5755 16.5705 16.879C16.9889 16.0966 17.1429 15.3258 17.1429 13.5774V9.32772C17.1429 8.75866 17.1231 8.50264 17.0557 8.21047C16.989 7.92105 16.8807 7.65956 16.7232 7.40774C16.5642 7.15353 16.3972 6.95847 15.9948 6.55608L12.5154 3.07662C12.113 2.67424 11.9179 2.50723 11.6637 2.34825C11.4119 2.19076 11.1504 2.08245 10.861 2.01574C10.6167 1.95945 10.3978 1.93636 10 1.93029V1.92857H8.35122ZM8.35122 3.35714C6.6834 3.35714 6.19531 3.50833 5.72336 3.76073C5.27575 4.00012 4.92873 4.34714 4.68934 4.79476C4.43694 5.2667 4.28575 5.75479 4.28575 7.42261V13.5774C4.28575 15.2452 4.43694 15.7333 4.68934 16.2052C4.92873 16.6529 5.27575 16.9999 5.72336 17.2393C6.19531 17.4917 6.6834 17.6429 8.35122 17.6429H11.6489C13.3167 17.6429 13.8048 17.4917 14.2767 17.2393C14.7243 16.9999 15.0713 16.6529 15.3107 16.2052C15.5631 15.7333 15.7143 15.2452 15.7143 13.5774V9.32772C15.7143 9.22965 15.7138 9.14507 15.7126 9.07112L11.7857 9.07143C10.7995 9.07143 10 8.27194 10 7.28571L10.0011 3.35889C9.9624 3.35826 9.92079 3.35781 9.87585 3.35753L8.35122 3.35714ZM11.5052 4.08678L11.4286 4.01071V7.28571C11.4286 7.46104 11.5549 7.60686 11.7216 7.6371L11.7857 7.64286L15.0624 7.64433C15.038 7.61964 15.0121 7.59365 14.9847 7.56623L11.5052 4.08678ZM6.42861 14.7857C6.42861 14.3912 6.7484 14.0714 7.14289 14.0714H10C10.3945 14.0714 10.7143 14.3912 10.7143 14.7857C10.7143 15.1802 10.3945 15.5 10 15.5H7.14289C6.7484 15.5 6.42861 15.1802 6.42861 14.7857ZM7.14289 11.2143C6.7484 11.2143 6.42861 11.5341 6.42861 11.9286C6.42861 12.3231 6.7484 12.6429 7.14289 12.6429H12.1429C12.5374 12.6429 12.8572 12.3231 12.8572 11.9286C12.8572 11.5341 12.5374 11.2143 12.1429 11.2143H7.14289Z" fill="#212121"/>
</svg>
