<svg width="20" height="20" viewBox="0 0 20 20" fill="none" xmlns="http://www.w3.org/2000/svg">
<path d="M15.6281 16.9714C14.993 17.311 14.3682 17.4166 13.0602 17.4166H10.8491C10.8438 17.4167 10.8386 17.4167 10.8333 17.4167C10.4191 17.4167 10.0833 17.081 10.0833 16.6667C10.0833 16.2525 10.4191 15.9167 10.8333 15.9167C10.8333 15.9167 10.8333 15.9167 10.8333 15.9167L13.0602 15.9166C14.2991 15.9166 14.619 15.81 14.9207 15.6486C15.2006 15.499 15.4157 15.2838 15.5654 15.0039C15.7267 14.7023 15.8333 14.3823 15.8333 13.1434L15.8333 6.85639C15.8333 5.6175 15.7267 5.29756 15.5654 4.99591C15.4157 4.71603 15.2006 4.50087 14.9207 4.35119C14.619 4.18987 14.2991 4.08325 13.0602 4.08325H10.8491C10.8439 4.08336 10.8386 4.08341 10.8333 4.08341C10.4191 4.08341 10.0833 3.74763 10.0833 3.33341C10.0833 2.9192 10.4191 2.58341 10.8333 2.58341C10.8333 2.58341 10.8333 2.58341 10.8333 2.58341L13.0602 2.58325C14.3682 2.58325 14.9929 2.6888 15.6281 3.02847C16.1694 3.31795 16.5986 3.74723 16.8881 4.28851C17.2278 4.92363 17.3333 5.54835 17.3333 6.85639V13.1434C17.3333 14.4515 17.2278 15.0762 16.8881 15.7113C16.5986 16.2526 16.1694 16.6819 15.6281 16.9714Z" fill="white"/>
<path d="M7.803 12.803L9.85593 10.7501H3.25C2.83579 10.7501 2.5 10.4143 2.5 10.0001C2.5 9.58588 2.83579 9.25009 3.25 9.25009H9.85609L7.803 7.19701C7.51011 6.90411 7.51011 6.42924 7.803 6.13635C8.0959 5.84345 8.57077 5.84345 8.86366 6.13635L12.197 9.46968C12.4899 9.76257 12.4899 10.2374 12.197 10.5303L8.86366 13.8637C8.57077 14.1566 8.0959 14.1566 7.803 13.8637C7.51011 13.5708 7.51011 13.0959 7.803 12.803Z" fill="white"/>
</svg>
