<svg width="20" height="20" viewBox="0 0 20 20" fill="none" xmlns="http://www.w3.org/2000/svg">
<path d="M8.88249 2.63777C9.33211 2.94235 9.70856 3.36413 10.001 3.89232C10.2921 3.36413 10.6685 2.94235 11.1181 2.63777C12.1826 1.91667 13.5291 1.9933 14.3395 2.80366C15.1498 3.61402 15.2265 4.96053 14.5054 6.025C14.4092 6.16698 14.3013 6.30165 14.1821 6.42869L15 6.42819C15.5705 6.42819 16.0781 6.55549 16.5014 6.7886C16.9246 7.02172 17.2636 7.36066 17.4967 7.78394C17.7298 8.20722 17.8571 8.71484 17.8571 9.28533V9.59208C17.8571 10.3113 17.7577 10.697 17.5709 11.0462C17.3841 11.3954 17.1101 11.6695 16.7609 11.8563C16.6564 11.9121 16.5487 11.9602 16.4297 12.0001L16.4285 14.1941C16.4285 15.4677 16.2959 15.9295 16.0469 16.3951C15.7979 16.8607 15.4325 17.2261 14.9669 17.4751C14.5013 17.7242 14.0394 17.8568 12.7658 17.8568H7.23409C5.96049 17.8568 5.49865 17.7242 5.03304 17.4751C4.56743 17.2261 4.20202 16.8607 3.95301 16.3951C3.704 15.9295 3.57139 15.4677 3.57139 14.1941L3.57093 12.0003C3.45169 11.9604 3.34374 11.9122 3.23906 11.8563C2.88985 11.6695 2.61579 11.3954 2.42904 11.0462C2.25784 10.7261 2.16 10.3754 2.14489 9.76512L2.14282 9.28533C2.14282 8.71484 2.27012 8.20722 2.50323 7.78394C2.73635 7.36066 3.07529 7.02172 3.49857 6.7886C3.92185 6.55549 4.42947 6.42819 4.99997 6.42819L5.8185 6.42869C5.69929 6.30165 5.59143 6.16698 5.49526 6.025C4.77416 4.96053 4.85079 3.61402 5.66115 2.80366C6.47151 1.9933 7.81802 1.91667 8.88249 2.63777ZM9.28568 12.1421L4.99997 12.1425V14.1941C4.99997 15.1396 5.05557 15.4275 5.21275 15.7214C5.32861 15.9381 5.4901 16.0995 5.70676 16.2154C6.00065 16.3726 6.28858 16.4282 7.23409 16.4282L9.28568 16.4278V12.1421ZM10.7143 12.1421V16.4278L12.7658 16.4282C13.7113 16.4282 13.9993 16.3726 14.2932 16.2154C14.5098 16.0995 14.6713 15.9381 14.7872 15.7214C14.9444 15.4275 15 15.1396 15 14.1941V12.1425L10.7143 12.1421ZM9.28568 7.85639L4.99997 7.85676C4.67255 7.85676 4.40039 7.92283 4.18773 8.03995C4.00127 8.14264 3.85728 8.28663 3.75458 8.4731C3.63746 8.68576 3.57139 8.95792 3.57139 9.28533L3.57249 9.72051C3.57912 10.082 3.61588 10.2362 3.68877 10.3725C3.74238 10.4728 3.81252 10.5429 3.91277 10.5965C4.06278 10.6768 4.23452 10.7132 4.68039 10.7139L9.28568 10.7135V7.85639ZM15 7.85676L10.7143 7.85639V10.7135H15.3185L15.4351 10.7128C15.7966 10.7062 15.9509 10.6694 16.0872 10.5965C16.1874 10.5429 16.2575 10.4728 16.3112 10.3725C16.3841 10.2362 16.4208 10.082 16.4274 9.72051L16.4285 9.28533C16.4285 8.95792 16.3625 8.68576 16.2453 8.4731C16.1427 8.28663 15.9987 8.14264 15.8122 8.03995C15.5995 7.92283 15.3274 7.85676 15 7.85676ZM10.7143 6.42819C13.3214 6.17835 14.0682 4.49637 13.3571 3.78533C12.6461 3.07429 10.9641 3.82105 10.7143 6.42819ZM6.64352 3.78533C5.93247 4.49637 6.67923 6.17835 9.28637 6.42819C9.03653 3.82105 7.35456 3.07429 6.64352 3.78533Z" fill="#212121"/>
</svg>
