<svg width="328" height="245" viewBox="0 0 328 245" fill="none" xmlns="http://www.w3.org/2000/svg">
<rect width="328" height="245" rx="16" fill="#F6F7F9"/>
<path d="M135.389 177.42H134.273C121.842 177.42 115.626 177.42 111.684 173.657C111.532 173.512 111.383 173.362 111.237 173.21C107.474 169.268 107.474 163.053 107.474 150.621V150.621" stroke="black" stroke-width="1.49518" stroke-linecap="round"/>
<path d="M190.372 66.9016H191.489C203.92 66.9016 210.136 66.9016 214.077 70.664C214.23 70.8097 214.379 70.9588 214.525 71.1114C218.287 75.0531 218.287 81.2686 218.287 93.6998V93.6998" stroke="black" stroke-width="1.49518" stroke-linecap="round"/>
<path d="M135.389 66.9017H134.273C121.842 66.9017 115.626 66.9017 111.684 70.6641C111.532 70.8098 111.383 70.9589 111.237 71.1115C107.474 75.0532 107.474 81.2688 107.474 93.7V93.7" stroke="black" stroke-width="1.49518" stroke-linecap="round"/>
<path d="M190.372 177.42H191.489C203.92 177.42 210.136 177.42 214.077 173.657C214.23 173.512 214.379 173.362 214.525 173.21C218.287 169.268 218.287 163.053 218.287 150.621V150.621" stroke="black" stroke-width="1.49518" stroke-linecap="round"/>
<path d="M163 62.7798L163 90.7325" stroke="#D7DDE8" stroke-width="1.5" stroke-linecap="round" stroke-dasharray="5.29 5.29"/>
<path d="M163 152.66L163 180.612" stroke="#D7DDE8" stroke-width="1.5" stroke-linecap="round" stroke-dasharray="5.29 5.29"/>
<path d="M183.329 107.416C180.713 97.9496 172.054 91 161.773 91C149.421 91 139.407 101.033 139.407 113.408C139.407 114.223 139.451 115.027 139.536 115.819C131.208 117.753 125 125.233 125 134.167C125 144.279 132.955 152.528 142.937 152.98H142.963C143.24 152.993 143.518 153 143.798 153C144.078 153 144.372 152.992 144.657 152.98L177.74 152.962C178.173 152.986 178.611 153 179.051 153C191.725 153 202 142.706 202 130.007C202 118.774 193.958 109.424 183.329 107.416Z" fill="#E5EEF7" stroke="#0077FF" stroke-width="1.5"/>
<path d="M162.708 30.0001H160.072C155.638 30.0001 153.421 30.0001 151.792 30.9981C150.881 31.5565 150.115 32.3227 149.557 33.234C148.559 34.8626 148.559 37.0795 148.559 41.5134V55.6867C148.559 60.1205 148.559 62.3374 149.557 63.966C150.115 64.8773 150.881 65.6435 151.792 66.2019C153.421 67.1999 155.638 67.1999 160.072 67.1999H167.443C171.877 67.1999 174.094 67.1999 175.722 66.2019C176.634 65.6435 177.4 64.8773 177.958 63.966C178.956 62.3374 178.956 60.1205 178.956 55.6867V46.2479C178.956 44.3142 178.956 43.3474 178.702 42.4458C178.557 41.9333 178.353 41.4396 178.093 40.975C177.635 40.1577 176.951 39.474 175.584 38.1068L170.85 33.3723C169.482 32.005 168.799 31.3214 167.981 30.8636C167.517 30.6034 167.023 30.3989 166.51 30.2544C165.609 30.0001 164.642 30.0001 162.708 30.0001Z" fill="#F6F7F9" stroke="#0077FF" stroke-width="1.5"/>
<path d="M178.943 43.3919V44.1419H179.746L179.692 43.3409L178.943 43.3919ZM177.337 39.86L176.807 40.3904V40.3904L177.337 39.86ZM169.096 31.6188L168.566 32.1491L168.566 32.1491L169.096 31.6188ZM164.715 30V29.25H163.965V30H164.715ZM166.008 40.6002L165.402 41.041L165.402 41.041L166.008 40.6002ZM167.507 42.0985L167.947 41.4917H167.947L167.507 42.0985ZM179.692 43.3409C179.589 41.8322 178.944 40.4057 177.868 39.3297L176.807 40.3904C177.626 41.2092 178.117 42.2948 178.195 43.4429L179.692 43.3409ZM177.868 39.3297L169.626 31.0884L168.566 32.1491L176.807 40.3904L177.868 39.3297ZM169.626 31.0884C168.449 29.9113 166.853 29.25 165.188 29.25V30.75C166.455 30.75 167.67 31.2533 168.566 32.1491L169.626 31.0884ZM165.188 29.25H164.715V30.75H165.188V29.25ZM163.965 30V31.2014H165.465V30H163.965ZM163.965 31.2014C163.965 33.7242 163.964 35.6766 164.131 37.2186C164.299 38.7747 164.646 40.0017 165.402 41.041L166.615 40.1594C166.077 39.4184 165.777 38.4855 165.622 37.057C165.466 35.6145 165.465 33.7576 165.465 31.2014H163.965ZM165.402 41.041C165.865 41.6796 166.427 42.2413 167.066 42.7052L167.947 41.4917C167.436 41.1203 166.987 40.6706 166.615 40.1594L165.402 41.041ZM167.066 42.7052C168.105 43.4603 169.332 43.8073 170.888 43.9759C172.43 44.1429 174.383 44.1419 176.905 44.1419V42.6419C174.349 42.6419 172.492 42.6409 171.05 42.4846C169.621 42.3298 168.688 42.0301 167.947 41.4917L167.066 42.7052ZM176.905 44.1419H178.943V42.6419H176.905V44.1419Z" fill="#0077FF"/>
<path d="M162.619 176.98H159.982C155.548 176.98 153.331 176.98 151.703 177.978C150.791 178.537 150.025 179.303 149.467 180.214C148.469 181.843 148.469 184.06 148.469 188.494V202.667C148.469 207.101 148.469 209.318 149.467 210.946C150.025 211.858 150.791 212.624 151.703 213.182C153.331 214.18 155.548 214.18 159.982 214.18H167.353C171.787 214.18 174.004 214.18 175.632 213.182C176.544 212.624 177.31 211.858 177.868 210.946C178.866 209.318 178.866 207.101 178.866 202.667V193.228C178.866 191.294 178.866 190.328 178.612 189.426C178.467 188.914 178.263 188.42 178.003 187.955C177.545 187.138 176.861 186.454 175.494 185.087L170.76 180.353C169.392 178.985 168.709 178.302 167.891 177.844C167.427 177.584 166.933 177.379 166.421 177.235C165.519 176.98 164.552 176.98 162.619 176.98Z" fill="#F6F7F9" stroke="#0077FF" stroke-width="1.5"/>
<path d="M178.853 190.372V191.122H179.656L179.602 190.321L178.853 190.372ZM177.248 186.84L176.717 187.371V187.371L177.248 186.84ZM169.006 178.599L168.476 179.129L168.476 179.129L169.006 178.599ZM164.625 176.98V176.23H163.875V176.98H164.625ZM165.918 187.58L165.312 188.021L165.312 188.021L165.918 187.58ZM167.417 189.079L167.858 188.472H167.858L167.417 189.079ZM179.602 190.321C179.499 188.812 178.854 187.386 177.778 186.31L176.717 187.371C177.536 188.189 178.027 189.275 178.105 190.423L179.602 190.321ZM177.778 186.31L169.537 178.069L168.476 179.129L176.717 187.371L177.778 186.31ZM169.537 178.069C168.359 176.892 166.763 176.23 165.098 176.23V177.73C166.365 177.73 167.58 178.233 168.476 179.129L169.537 178.069ZM165.098 176.23H164.625V177.73H165.098V176.23ZM163.875 176.98V178.182H165.375V176.98H163.875ZM163.875 178.182C163.875 180.704 163.874 182.657 164.041 184.199C164.21 185.755 164.557 186.982 165.312 188.021L166.525 187.14C165.987 186.399 165.687 185.466 165.532 184.037C165.376 182.595 165.375 180.738 165.375 178.182H163.875ZM165.312 188.021C165.776 188.66 166.337 189.221 166.976 189.685L167.858 188.472C167.346 188.1 166.897 187.651 166.525 187.14L165.312 188.021ZM166.976 189.685C168.015 190.441 169.242 190.787 170.798 190.956C172.34 191.123 174.293 191.122 176.816 191.122V189.622C174.259 189.622 172.402 189.621 170.96 189.465C169.531 189.31 168.599 189.01 167.858 188.472L166.976 189.685ZM176.816 191.122H178.853V189.622H176.816V191.122Z" fill="#0077FF"/>
</svg>
