<svg width="217" height="48" viewBox="0 0 217 48" fill="none" xmlns="http://www.w3.org/2000/svg">
<path d="M0.00146484 22.8197C0.00146484 12.0624 0.00146484 6.68372 3.34708 3.34186C6.69269 0 12.0774 0 22.8467 0H25.21C35.9794 0 41.3641 0 44.7097 3.34186C48.0553 6.68372 48.0553 12.0624 48.0553 22.8197V25.1803C48.0553 35.9376 48.0553 41.3162 44.7097 44.6581C41.3641 48 35.9794 48 25.21 48H22.8467C12.0774 48 6.69269 48 3.34708 44.6581C0.00146484 41.3162 0.00146484 35.9376 0.00146484 25.1803V22.8197Z" fill="#0077FF"/>
<path d="M10.6319 0.376807C13.6984 2.86102e-08 17.6444 0 22.8472 0H25.2105C30.4133 0 34.3593 1.43051e-07 37.4258 0.376808C37.6247 0.67469 37.7242 0.969907 37.7242 1.27915C37.7242 2.61014 35.8816 3.68123 32.1963 5.82342L31.8465 6.02671C28.1612 8.16889 26.3186 9.23999 24.0288 9.23999C21.7391 9.23999 19.8965 8.1689 16.2112 6.02671L15.8614 5.82342C12.1761 3.68123 10.3335 2.61014 10.3335 1.27916C10.3335 0.969908 10.433 0.67469 10.6319 0.376807Z" fill="#00D3E6"/>
<path d="M13.5469 10.144C17.2743 12.2936 19.138 13.3684 20.2959 15.3718C21.4539 17.3752 21.4539 19.5248 21.4539 23.824V24.232C21.4539 28.5312 21.4539 30.6808 20.2959 31.3486C19.138 32.0164 17.2743 30.9416 13.5469 28.792L13.1932 28.588C9.46575 26.4384 7.60204 25.3636 6.44409 23.3602C5.28613 21.3568 5.28613 19.2072 5.28613 14.908L5.28613 14.5C5.28613 10.2008 5.28613 8.05123 6.44409 7.38343C7.60204 6.71564 9.46575 7.79044 13.1931 9.94004L13.5469 10.144Z" fill="#00D3E6"/>
<path d="M34.51 10.3672C30.7826 12.5168 28.9189 13.5916 27.761 15.595C26.603 17.5984 26.603 19.748 26.603 24.0472L26.603 24.4552C26.603 28.7544 26.603 30.904 27.761 31.5718C28.9189 32.2396 30.7826 31.1648 34.51 29.0152L34.8638 28.8112C38.5912 26.6616 40.4549 25.5868 41.6128 23.5834C42.7708 21.58 42.7708 19.4304 42.7708 15.1312V14.7232C42.7708 10.424 42.7708 8.27438 41.6128 7.60658C40.4549 6.93878 38.5912 8.01358 34.8638 10.1632L34.51 10.3672Z" fill="white"/>
<path d="M78.4911 36.3147H72.4725L63.9089 12.0956H68.3455L75.1895 32.0549H75.8773L82.9621 12.0956H87.3298L78.4911 36.3147Z" fill="black"/>
<path d="M98.7882 23.7757L109.931 36.3147H104.497L95.4178 25.94H94.3861V36.3147H90.2591V12.0956H94.3861V21.955H95.3834L103.981 12.0956H109.071L98.7882 23.7757Z" fill="black"/>
<path d="M130.478 36.6582C128.185 36.6582 126.133 36.1315 124.322 35.078C122.51 34.0016 121.089 32.5244 120.057 30.6464C119.048 28.7455 118.544 26.5927 118.544 24.188C118.544 21.8062 119.048 19.6762 120.057 17.7983C121.089 15.8974 122.51 14.4202 124.322 13.3667C126.133 12.2903 128.185 11.7521 130.478 11.7521C132.977 11.7521 135.189 12.3819 137.115 13.6415C139.041 14.8782 140.417 16.5844 141.242 18.7602L137.15 19.4472C136.577 18.2105 135.705 17.2486 134.536 16.5615C133.39 15.8745 132.083 15.5309 130.615 15.5309C129.102 15.5309 127.749 15.8974 126.557 16.6302C125.388 17.3631 124.471 18.3823 123.806 19.6877C123.164 20.9931 122.843 22.4932 122.843 24.188C122.843 25.8827 123.164 27.3943 123.806 28.7226C124.471 30.0281 125.388 31.0472 126.557 31.7801C127.749 32.5129 129.102 32.8794 130.615 32.8794C132.106 32.8794 133.447 32.5244 134.639 31.8144C135.831 31.0816 136.726 30.0739 137.322 28.7913L141.414 29.4784C140.543 31.677 139.122 33.429 137.15 34.7345C135.201 36.017 132.977 36.6582 130.478 36.6582Z" fill="black"/>
<path d="M148.653 36.3147H144.698V12.0956H148.653V36.3147Z" fill="black"/>
<path d="M161.821 36.6582C159.987 36.6582 158.336 36.2689 156.868 35.4902C155.424 34.6887 154.289 33.5893 153.464 32.1923C152.661 30.7724 152.26 29.1692 152.26 27.3828C152.26 25.5965 152.661 24.0048 153.464 22.6077C154.289 21.1878 155.424 20.0885 156.868 19.3098C158.336 18.5082 159.987 18.1074 161.821 18.1074C163.655 18.1074 165.294 18.5082 166.739 19.3098C168.206 20.0885 169.341 21.1878 170.144 22.6077C170.969 24.0048 171.382 25.5965 171.382 27.3828C171.382 29.1692 170.969 30.7724 170.144 32.1923C169.341 33.5893 168.206 34.6887 166.739 35.4902C165.294 36.2689 163.655 36.6582 161.821 36.6582ZM161.821 33.0511C163.426 33.0511 164.733 32.5358 165.741 31.5052C166.75 30.4517 167.255 29.0776 167.255 27.3828C167.255 25.6881 166.75 24.3254 165.741 23.2948C164.733 22.2413 163.426 21.7145 161.821 21.7145C160.216 21.7145 158.909 22.2413 157.9 23.2948C156.891 24.3254 156.387 25.6881 156.387 27.3828C156.387 29.0776 156.891 30.4517 157.9 31.5052C158.909 32.5358 160.216 33.0511 161.821 33.0511Z" fill="black"/>
<path d="M181.355 36.6582C180.094 36.6582 178.947 36.3376 177.915 35.6964C176.907 35.0551 176.104 34.1734 175.508 33.0511C174.935 31.9289 174.648 30.6579 174.648 29.2379V18.451H178.603V28.7913C178.603 30.0739 178.959 31.1159 179.669 31.9175C180.403 32.7191 181.332 33.1199 182.455 33.1199C183.602 33.1199 184.553 32.7191 185.31 31.9175C186.066 31.093 186.445 30.051 186.445 28.7913V18.451H190.4V36.3147H187.442L186.651 33.6352C186.078 34.5741 185.321 35.3185 184.381 35.8681C183.441 36.3949 182.432 36.6582 181.355 36.6582Z" fill="black"/>
<path d="M202.575 36.6582C200.901 36.6582 199.399 36.2689 198.069 35.4902C196.74 34.6887 195.696 33.5893 194.94 32.1923C194.206 30.7724 193.839 29.1692 193.839 27.3828C193.839 25.5965 194.206 24.0048 194.94 22.6077C195.696 21.1878 196.74 20.0885 198.069 19.3098C199.399 18.5082 200.901 18.1074 202.575 18.1074C204.019 18.1074 205.303 18.4052 206.427 19.0006C207.55 19.5732 208.467 20.2946 209.178 21.1649V12.0956H213.133V36.3147H210.175L209.35 33.429C208.616 34.3222 207.676 35.0894 206.53 35.7307C205.383 36.3491 204.065 36.6582 202.575 36.6582ZM203.538 33.1199C205.211 33.1199 206.564 32.5931 207.596 31.5396C208.651 30.4632 209.178 29.0776 209.178 27.3828C209.178 25.6881 208.651 24.3139 207.596 23.2604C206.564 22.184 205.211 21.6458 203.538 21.6458C201.887 21.6458 200.546 22.184 199.514 23.2604C198.482 24.3139 197.966 25.6881 197.966 27.3828C197.966 29.0776 198.482 30.4632 199.514 31.5396C200.546 32.5931 201.887 33.1199 203.538 33.1199Z" fill="black"/>
</svg>
