<svg width="178" height="40" viewBox="0 0 178 40" fill="none" xmlns="http://www.w3.org/2000/svg">
<path d="M0 19.0164C0 10.052 0 5.56977 2.78488 2.78488C5.56977 0 10.052 0 19.0164 0H20.9836C29.948 0 34.4302 0 37.2151 2.78488C40 5.56977 40 10.052 40 19.0164V20.9836C40 29.948 40 34.4302 37.2151 37.2151C34.4302 40 29.948 40 20.9836 40H19.0164C10.052 40 5.56977 40 2.78488 37.2151C0 34.4302 0 29.948 0 20.9836V19.0164Z" fill="#0077FF"/>
<path d="M8.8485 0.314006C11.4011 2.38418e-08 14.6857 0 19.0165 0H20.9837C25.3145 0 28.5991 1.19209e-07 31.1517 0.314007C31.3173 0.562242 31.4001 0.808256 31.4001 1.06596C31.4001 2.17512 29.8663 3.06769 26.7986 4.85285L26.5075 5.02226C23.4399 6.80741 21.9061 7.69999 20.0001 7.69999C18.0941 7.69999 16.5603 6.80742 13.4927 5.02226L13.2015 4.85285C10.1339 3.06769 8.6001 2.17512 8.6001 1.06596C8.6001 0.808256 8.6829 0.562242 8.8485 0.314006Z" fill="#00D3E6"/>
<path d="M11.2764 8.45337C14.3791 10.2447 15.9304 11.1404 16.8943 12.8099C17.8582 14.4794 17.8582 16.2707 17.8582 19.8534V20.1934C17.8582 23.776 17.8582 25.5674 16.8943 26.1239C15.9304 26.6804 14.3791 25.7847 11.2764 23.9934L10.9819 23.8234C7.87925 22.032 6.32791 21.1364 5.36403 19.4669C4.40015 17.7974 4.40015 16.006 4.40015 12.4234L4.40015 12.0834C4.40015 8.5007 4.40015 6.70936 5.36403 6.15286C6.32791 5.59637 7.87925 6.49203 10.9819 8.28337L11.2764 8.45337Z" fill="#00D3E6"/>
<path d="M28.7239 8.63916C25.6212 10.4305 24.0699 11.3262 23.106 12.9957C22.1421 14.6651 22.1421 16.4565 22.1421 20.0392L22.1421 20.3791C22.1421 23.9618 22.1421 25.7532 23.106 26.3097C24.0699 26.8662 25.6212 25.9705 28.7239 24.1791L29.0183 24.0092C32.121 22.2178 33.6724 21.3221 34.6362 19.6527C35.6001 17.9832 35.6001 16.1918 35.6001 12.6092V12.2692C35.6001 8.68649 35.6001 6.89515 34.6362 6.33865C33.6724 5.78216 32.121 6.67782 29.0183 8.46916L28.7239 8.63916Z" fill="white"/>
<path d="M65.1382 30.0912H60.1283L53 9.90859H56.693L62.3899 26.5413H62.9625L68.8598 9.90859H72.4955L65.1382 30.0912Z" fill="white"/>
<path d="M82.0335 19.642L91.3089 30.0912H86.7857L79.228 21.4456H78.3691V30.0912H74.9338V9.90859H78.3691V18.1248H79.1993L86.3563 9.90859H90.5932L82.0335 19.642Z" fill="white"/>
<path d="M108.412 30.3775C106.503 30.3775 104.795 29.9385 103.287 29.0606C101.78 28.1636 100.596 26.9326 99.7375 25.3676C98.8978 23.7835 98.4779 21.9895 98.4779 19.9856C98.4779 18.0007 98.8978 16.2258 99.7375 14.6608C100.596 13.0767 101.78 11.8457 103.287 10.9678C104.795 10.0708 106.503 9.62231 108.412 9.62231C110.492 9.62231 112.334 10.1472 113.937 11.1968C115.54 12.2274 116.685 13.6493 117.372 15.4624L113.966 16.0349C113.488 15.0043 112.763 14.2028 111.79 13.6302C110.836 13.0576 109.748 12.7714 108.526 12.7714C107.267 12.7714 106.141 13.0767 105.148 13.6875C104.175 14.2982 103.411 15.1475 102.858 16.2353C102.324 17.3232 102.056 18.5733 102.056 19.9856C102.056 21.3979 102.324 22.6575 102.858 23.7644C103.411 24.8523 104.175 25.7016 105.148 26.3123C106.141 26.923 107.267 27.2284 108.526 27.2284C109.767 27.2284 110.883 26.9326 111.876 26.3409C112.868 25.7302 113.612 24.8905 114.109 23.8217L117.515 24.3943C116.79 26.2264 115.607 27.6864 113.966 28.7743C112.343 29.8431 110.492 30.3775 108.412 30.3775Z" fill="white"/>
<path d="M123.541 30.0912H120.248V9.90859H123.541V30.0912Z" fill="white"/>
<path d="M134.502 30.3775C132.975 30.3775 131.601 30.053 130.379 29.4041C129.177 28.7361 128.232 27.82 127.545 26.6558C126.877 25.4726 126.543 24.1366 126.543 22.648C126.543 21.1593 126.877 19.8329 127.545 18.6687C128.232 17.4854 129.177 16.5693 130.379 15.9204C131.601 15.2524 132.975 14.9185 134.502 14.9185C136.029 14.9185 137.393 15.2524 138.596 15.9204C139.817 16.5693 140.762 17.4854 141.43 18.6687C142.117 19.8329 142.46 21.1593 142.46 22.648C142.46 24.1366 142.117 25.4726 141.43 26.6558C140.762 27.82 139.817 28.7361 138.596 29.4041C137.393 30.053 136.029 30.3775 134.502 30.3775ZM134.502 27.3715C135.838 27.3715 136.926 26.9421 137.765 26.0833C138.605 25.2054 139.025 24.0603 139.025 22.648C139.025 21.2357 138.605 20.1001 137.765 19.2413C136.926 18.3633 135.838 17.9244 134.502 17.9244C133.166 17.9244 132.078 18.3633 131.238 19.2413C130.398 20.1001 129.979 21.2357 129.979 22.648C129.979 24.0603 130.398 25.2054 131.238 26.0833C132.078 26.9421 133.166 27.3715 134.502 27.3715Z" fill="white"/>
<path d="M150.762 30.3775C149.712 30.3775 148.758 30.1103 147.899 29.5759C147.059 29.0415 146.391 28.3067 145.895 27.3715C145.418 26.4364 145.179 25.3771 145.179 24.1939V15.2047H148.471V23.8217C148.471 24.8905 148.767 25.7588 149.359 26.4268C149.97 27.0948 150.743 27.4288 151.678 27.4288C152.632 27.4288 153.424 27.0948 154.054 26.4268C154.684 25.7398 154.999 24.8714 154.999 23.8217V15.2047H158.291V30.0912H155.829L155.17 27.8582C154.693 28.6407 154.063 29.261 153.281 29.719C152.498 30.158 151.659 30.3775 150.762 30.3775Z" fill="white"/>
<path d="M168.425 30.3775C167.032 30.3775 165.782 30.053 164.675 29.4041C163.568 28.7361 162.7 27.82 162.07 26.6558C161.459 25.4726 161.154 24.1366 161.154 22.648C161.154 21.1593 161.459 19.8329 162.07 18.6687C162.7 17.4854 163.568 16.5693 164.675 15.9204C165.782 15.2524 167.032 14.9185 168.425 14.9185C169.628 14.9185 170.696 15.1666 171.632 15.6628C172.567 16.1399 173.33 16.7411 173.922 17.4663V9.90859H177.214V30.0912H174.752L174.065 27.6864C173.454 28.4308 172.672 29.0701 171.717 29.6045C170.763 30.1198 169.666 30.3775 168.425 30.3775ZM169.227 27.4288C170.62 27.4288 171.746 26.9898 172.605 26.1119C173.483 25.2149 173.922 24.0603 173.922 22.648C173.922 21.2357 173.483 20.0905 172.605 19.2126C171.746 18.3156 170.62 17.8671 169.227 17.8671C167.853 17.8671 166.736 18.3156 165.877 19.2126C165.019 20.0905 164.589 21.2357 164.589 22.648C164.589 24.0603 165.019 25.2149 165.877 26.1119C166.736 26.9898 167.853 27.4288 169.227 27.4288Z" fill="white"/>
</svg>
