<svg width="28" height="28" viewBox="0 0 28 28" fill="none" xmlns="http://www.w3.org/2000/svg">
<path d="M18.9071 10.2929C19.2976 10.6834 19.2976 11.3166 18.9071 11.7071L13.3071 17.3071C12.9195 17.6947 12.2921 17.698 11.9004 17.3146L9.30043 14.7691C8.90579 14.3827 8.89908 13.7496 9.28544 13.355C9.6718 12.9603 10.3049 12.9536 10.6996 13.34L12.5925 15.1932L17.4929 10.2929C17.8834 9.90237 18.5166 9.90237 18.9071 10.2929Z" fill="#212121"/>
<path fill-rule="evenodd" clip-rule="evenodd" d="M10 2.5C10 1.94772 9.55229 1.5 9 1.5C8.44772 1.5 8 1.94772 8 2.5V3.1419C7.54687 3.21908 7.12767 3.34237 6.73005 3.54497C5.78924 4.02433 5.02434 4.78924 4.54497 5.73005C4.24318 6.32234 4.11737 6.96253 4.05782 7.69138C3.99998 8.39926 3.99999 9.27341 4 10.3572V17.6428C3.99999 18.7266 3.99998 19.6008 4.05782 20.3086C4.11737 21.0375 4.24318 21.6777 4.54497 22.27C5.02434 23.2108 5.78924 23.9757 6.73005 24.455C7.32234 24.7568 7.96253 24.8826 8.69138 24.9422C9.39923 25 10.2733 25 11.3571 25H16.6428C17.7266 25 18.6008 25 19.3086 24.9422C20.0375 24.8826 20.6777 24.7568 21.27 24.455C22.2108 23.9757 22.9757 23.2108 23.455 22.27C23.7568 21.6777 23.8826 21.0375 23.9422 20.3086C24 19.6008 24 18.7267 24 17.6429V10.3572C24 9.27344 24 8.39923 23.9422 7.69138C23.8826 6.96253 23.7568 6.32234 23.455 5.73005C22.9757 4.78924 22.2108 4.02433 21.27 3.54497C20.8723 3.34237 20.4531 3.21908 20 3.1419V2.5C20 1.94772 19.5523 1.5 19 1.5C18.4477 1.5 18 1.94772 18 2.5V3.00549C17.5885 2.99999 17.1375 3 16.6428 3L15 3V2.5C15 1.94772 14.5523 1.5 14 1.5C13.4477 1.5 13 1.94772 13 2.5V3L11.3572 3C10.8625 3 10.4115 2.99999 10 3.00549V2.5ZM18 5.0057C17.5985 5.00017 17.1378 5 16.6 5H15V5.5C15 6.05228 14.5523 6.5 14 6.5C13.4477 6.5 13 6.05228 13 5.5V5H11.4C10.8622 5 10.4015 5.00017 10 5.0057V5.5C10 6.05228 9.55229 6.5 9 6.5C8.44772 6.5 8 6.05228 8 5.5V5.18775C7.8591 5.22758 7.74199 5.27401 7.63803 5.32698C7.07354 5.6146 6.6146 6.07354 6.32698 6.63803C6.19279 6.90138 6.10062 7.24907 6.05118 7.85424C6.00078 8.47108 6 9.2634 6 10.4V17.6C6 18.7366 6.00078 19.5289 6.05118 20.1458C6.10062 20.7509 6.19279 21.0986 6.32698 21.362C6.6146 21.9265 7.07354 22.3854 7.63803 22.673C7.90138 22.8072 8.24907 22.8994 8.85424 22.9488C9.47108 22.9992 10.2634 23 11.4 23H16.6C17.7366 23 18.5289 22.9992 19.1458 22.9488C19.7509 22.8994 20.0986 22.8072 20.362 22.673C20.9265 22.3854 21.3854 21.9265 21.673 21.362C21.8072 21.0986 21.8994 20.7509 21.9488 20.1458C21.9992 19.5289 22 18.7366 22 17.6V10.4C22 9.26339 21.9992 8.47108 21.9488 7.85424C21.8994 7.24907 21.8072 6.90138 21.673 6.63803C21.3854 6.07354 20.9265 5.6146 20.362 5.32698C20.258 5.27401 20.1409 5.22758 20 5.18775V5.5C20 6.05228 19.5523 6.5 19 6.5C18.4477 6.5 18 6.05228 18 5.5V5.0057Z" fill="#212121"/>
</svg>
