<svg width="66" height="72" viewBox="0 0 66 72" fill="none" xmlns="http://www.w3.org/2000/svg">
<path d="M13.5968 0C15.9266 13.618 21.8953 25.9728 30.4516 36H13.5972C6.63101 25.3889 1.8944 13.1653 0 0H13.5968Z" fill="white"/>
<path d="M13.5972 36C15.9271 49.618 21.8953 61.9728 30.4516 72H13.5972C6.63101 61.3889 1.8944 49.1653 0 36L13.5972 36Z" fill="white"/>
<path d="M49.1451 0C51.475 13.618 57.4437 25.9728 66 36H49.1456C42.1794 25.3889 37.4428 13.1653 35.5484 0H49.1451Z" fill="white"/>
<path d="M49.1456 36C51.4755 49.618 57.4437 61.9728 66 72H49.1456C42.1794 61.3889 37.4428 49.1653 35.5484 36L49.1456 36Z" fill="white"/>
</svg>
