<svg width="28" height="28" viewBox="0 0 28 28" fill="none" xmlns="http://www.w3.org/2000/svg">
<path fill-rule="evenodd" clip-rule="evenodd" d="M11.8002 7.51487C11.8246 7.46552 11.8507 7.4168 11.8787 7.36878L14.2343 3.32225C14.6746 2.56598 15.4882 2.1001 16.3687 2.1001H21.0799C21.9604 2.1001 22.774 2.56598 23.2143 3.32225L25.5699 7.36878C26.0102 8.12505 26.0102 9.05681 25.5699 9.81308L23.2143 13.8596C23.1863 13.9076 23.1569 13.9545 23.126 14.0001C23.1569 14.0457 23.1863 14.0926 23.2143 14.1406L25.5699 18.1871C26.0102 18.9434 26.0102 19.8751 25.5699 20.6314L23.2143 24.6779C22.774 25.4342 21.9604 25.9001 21.0799 25.9001H16.3687C15.4882 25.9001 14.6746 25.4342 14.2343 24.6779L11.8787 20.6314C11.8507 20.5833 11.8245 20.5345 11.8001 20.4851C11.7442 20.4889 11.688 20.4908 11.6315 20.4908H6.92027C6.03977 20.4908 5.22616 20.0249 4.78591 19.2687L2.43029 15.2221C1.99003 14.4659 1.99004 13.5341 2.43029 12.7778L4.78591 8.73131C5.22616 7.97504 6.03977 7.50916 6.92027 7.50916H11.6315C11.688 7.50916 11.7443 7.51108 11.8002 7.51487ZM14.1605 9.40571C13.867 8.90152 13.867 8.28032 14.1605 7.77612L15.7309 5.07834C16.0244 4.57415 16.5669 4.26355 17.1539 4.26355L20.2948 4.26355C20.8818 4.26355 21.4243 4.57415 21.7178 5.07834L23.2882 7.77612C23.5818 8.28032 23.5818 8.90151 23.2882 9.40571L21.7178 12.1035C21.4243 12.6077 20.8818 12.9183 20.2948 12.9183H17.1539C16.5669 12.9183 16.0244 12.6077 15.7309 12.1035L14.1605 9.40571ZM4.71205 13.1852C4.41854 13.6894 4.41854 14.3106 4.71205 14.8148L6.28252 17.5126C6.57603 18.0167 7.11846 18.3273 7.70548 18.3273H10.8464C11.4334 18.3273 11.9759 18.0167 12.2694 17.5126L13.8398 14.8148C14.1334 14.3106 14.1334 13.6894 13.8398 13.1852L12.2694 10.4874C11.9759 9.9832 11.4334 9.67261 10.8464 9.67261L7.70548 9.67261C7.11846 9.67261 6.57603 9.9832 6.28252 10.4874L4.71205 13.1852ZM14.1605 18.5945C13.867 19.0986 13.867 19.7198 14.1605 20.224L15.7309 22.9218C16.0244 23.426 16.5669 23.7366 17.1539 23.7366H20.2948C20.8818 23.7366 21.4243 23.426 21.7178 22.9218L23.2882 20.224C23.5818 19.7198 23.5818 19.0986 23.2882 18.5945L21.7178 15.8967C21.4243 15.3925 20.8818 15.0819 20.2948 15.0819H17.1539C16.5669 15.0819 16.0244 15.3925 15.7309 15.8967L14.1605 18.5945Z" fill="#3D98FF"/>
</svg>
