<svg width="28" height="28" viewBox="0 0 28 28" fill="none" xmlns="http://www.w3.org/2000/svg">
<path fill-rule="evenodd" clip-rule="evenodd" d="M4.24603 1.76516C4.6034 1.20523 5.37064 1.0295 5.96103 1.35056C6.55876 1.67563 6.77292 2.40097 6.41171 2.97144C6.43131 2.93909 6.34767 3.0796 6.31219 3.14428C6.24115 3.27377 6.13825 3.47253 6.02211 3.73181C5.78923 4.25166 5.50672 5.00672 5.3184 5.92851C4.943 7.76596 4.94342 10.2455 6.44033 12.8817C8.2776 16.1174 8.26011 19.4554 7.81719 21.9247C7.59477 23.1646 7.26157 24.2075 6.98286 24.9434C6.84321 25.3121 6.71643 25.606 6.6226 25.8113C6.59872 25.8636 6.57695 25.9102 6.55762 25.9509L6.56264 25.9532L6.4612 26.1466L6.45984 26.1492L6.45872 26.1515L6.45603 26.1564C6.14608 26.7404 5.39764 26.9694 4.78455 26.6955C4.16249 26.4175 3.88323 25.7113 4.19584 25.1131L4.19663 25.1116L4.19957 25.1058L4.21971 25.0654C4.23868 25.0268 4.26809 24.9657 4.30558 24.8836C4.3806 24.7194 4.4876 24.4722 4.60773 24.155C4.84855 23.5191 5.13878 22.611 5.33199 21.5339C5.72031 19.3691 5.70286 16.6091 4.2151 13.989C2.38697 10.7695 2.38744 7.71637 2.84328 5.48521C3.07058 4.37264 3.4115 3.45933 3.69817 2.8194C3.84179 2.49879 3.97268 2.2448 4.07049 2.06652C4.09234 2.02668 4.11257 1.99058 4.13094 1.95833L4.24603 1.76516ZM21.5845 1.76707L21.5856 1.76531C21.943 1.20538 22.7103 1.0295 23.3007 1.35056C23.8984 1.67562 24.1126 2.40094 23.7514 2.97141L23.7502 2.97336L23.7489 2.97555L23.7318 3.00379C23.7148 3.0324 23.6874 3.0796 23.6519 3.14428C23.5808 3.27377 23.4779 3.47253 23.3618 3.73181C23.1289 4.25166 22.8464 5.00672 22.6581 5.92851C22.2827 7.76596 22.2831 10.2455 23.78 12.8817C25.6173 16.1174 25.5998 19.4554 25.1569 21.9247C24.9345 23.1646 24.6013 24.2075 24.3226 24.9434C24.1829 25.3121 24.0561 25.606 23.9623 25.8113C23.9154 25.9141 23.8766 25.9949 23.8485 26.0521C23.8344 26.0806 23.823 26.1033 23.8146 26.1199L23.8045 26.1396L23.8009 26.1466L23.7996 26.1491L23.7986 26.151C23.4903 26.7388 22.7392 26.9702 22.1242 26.6955C21.5022 26.4175 21.2229 25.7113 21.5355 25.1131L21.5363 25.1115L21.5384 25.1075L21.5393 25.1058C21.5582 25.0672 21.608 24.9652 21.6453 24.8836C21.7203 24.7194 21.8273 24.4722 21.9474 24.155C22.1882 23.5191 22.4785 22.611 22.6717 21.5339C23.06 19.3691 23.0426 16.6091 21.5548 13.989C19.7267 10.7695 19.7271 7.71637 20.183 5.48521C20.4103 4.37264 20.7512 3.45933 21.0379 2.8194C21.1815 2.49879 21.3124 2.2448 21.4102 2.06652C21.4591 1.97732 21.4999 1.90688 21.5299 1.85632C21.545 1.83104 21.5578 1.81006 21.5672 1.79482L21.5788 1.77613L21.5829 1.76965L21.5845 1.76707ZM14.6347 1.35056C14.0443 1.0295 13.2771 1.20523 12.9197 1.76516L12.9183 1.76741L12.9169 1.76965L12.8046 1.95833C12.7863 1.99059 12.766 2.02668 12.7442 2.06652C12.6464 2.2448 12.5155 2.49879 12.3719 2.8194C12.0852 3.45933 11.7443 4.37264 11.517 5.4852C11.0611 7.71637 11.0607 10.7695 12.8888 13.989C14.3766 16.6091 14.394 19.3691 14.0057 21.5339C13.8125 22.611 13.5222 23.5191 13.2814 24.155C13.1613 24.4722 13.0543 24.7194 12.9793 24.8836C12.9418 24.9657 12.8922 25.0672 12.8733 25.1058C12.5607 25.704 12.8362 26.4175 13.4582 26.6955C14.0713 26.9694 14.8198 26.7404 15.1297 26.1564C15.1321 26.1522 15.1336 26.1491 15.1336 26.1491L15.1349 26.1466L15.138 26.1405L15.2363 25.9532L15.2313 25.9509C15.2506 25.9102 15.2724 25.8636 15.2963 25.8113C15.3901 25.606 15.5169 25.3121 15.6566 24.9434C15.9353 24.2075 16.2685 23.1646 16.4909 21.9247C16.9338 19.4554 16.9513 16.1174 15.114 12.8817C13.6171 10.2455 13.6167 7.76596 13.9921 5.92851C14.1804 5.00672 14.4629 4.25166 14.6958 3.73181C14.8119 3.47253 14.9148 3.27377 14.9859 3.14428C15.0214 3.0796 15.0473 3.03458 15.0854 2.97142L15.0829 2.97551L15.0842 2.97336L15.0854 2.97142C15.4466 2.40095 15.2324 1.67562 14.6347 1.35056Z" fill="#3D98FF"/>
</svg>
