<svg width="20" height="21" viewBox="0 0 20 21" fill="none" xmlns="http://www.w3.org/2000/svg">
<g id="tech_support">
<path id="Vector" d="M16.9544 10.3763V10.2996C16.9544 6.46828 13.8303 3.34424 9.99306 3.34424C6.1558 3.34424 3.03766 6.46828 3.03766 10.2996V10.3763H2.84314V15.9642C2.84314 16.4593 3.24396 16.866 3.74498 16.866H6.09096C6.58609 16.866 6.99281 16.4593 6.99281 15.9642V11.2722C6.99281 10.7771 6.58609 10.3704 6.09096 10.3704H4.45231V10.2938C4.44642 7.24044 6.93386 4.753 9.99306 4.753C13.0523 4.753 15.5397 7.24044 15.5397 10.2996V10.3763H13.9011C13.4059 10.3763 12.9992 10.783 12.9992 11.2781V15.4573H12.451C12.3921 14.3668 11.4843 13.5062 10.3821 13.5062C9.27984 13.5062 8.30726 14.4375 8.30726 15.581C8.30726 16.7246 9.23858 17.6559 10.3821 17.6559C11.0187 17.6559 11.6081 17.3729 12.0031 16.8719H16.2411C16.7363 16.8719 17.143 16.4652 17.143 15.9701V10.3822H16.9485L16.9544 10.3763ZM15.7401 11.785V15.4573H14.4139V11.785H15.7401ZM4.2519 15.4573V11.785H5.57815V15.4573H4.2519ZM11.0482 15.5751C11.0482 15.9406 10.7534 16.2412 10.3821 16.2412C10.0107 16.2412 9.71602 15.9465 9.71602 15.5751C9.71602 15.2038 10.0107 14.9091 10.3821 14.9091C10.7534 14.9091 11.0482 15.2038 11.0482 15.5751Z" fill="#212121"/>
</g>
</svg>
