<svg width="22" height="22" viewBox="0 0 22 22" fill="none" xmlns="http://www.w3.org/2000/svg">
<path fill-rule="evenodd" clip-rule="evenodd" d="M1.54648 1.54648C0 3.09295 0 5.58197 0 10.56V11.44C0 16.418 0 18.907 1.54648 20.4535C3.09295 22 5.58197 22 10.56 22H11.44C16.418 22 18.907 22 20.4535 20.4535C22 18.907 22 16.418 22 11.44V10.56C22 5.58197 22 3.09295 20.4535 1.54648C18.907 0 16.418 0 11.44 0H10.56C5.58197 0 3.09295 0 1.54648 1.54648ZM12.6554 6.46349L3.71924 10.0236C2.14729 10.617 3.06745 11.1732 3.06745 11.1732C3.06745 11.1732 4.40936 11.6182 5.55956 11.952C6.70976 12.2858 7.3232 11.9149 7.3232 11.9149L12.7321 8.39759C14.6491 7.13671 14.189 8.17508 13.7289 8.62009C12.7321 9.58429 11.0835 11.1048 9.70324 12.3285C9.0898 12.8477 9.39652 13.2927 9.6649 13.5153C10.4451 14.1538 12.2822 15.3148 13.1174 15.8427C13.3493 15.9892 13.5039 16.087 13.5372 16.1112C13.7289 16.2595 14.8025 16.927 15.4542 16.7787C16.106 16.6303 16.1827 15.7774 16.1827 15.7774L17.1412 9.95228C17.2274 9.39948 17.3135 8.85861 17.3937 8.35506C17.599 7.06565 17.7654 6.021 17.793 5.64763C17.908 4.38676 16.5278 4.90594 16.5278 4.90594C16.5278 4.90594 13.5372 6.09264 12.6554 6.46349Z" fill="black"/>
</svg>
