<svg width="56" height="56" viewBox="0 0 56 56" fill="none" xmlns="http://www.w3.org/2000/svg">
<path fill-rule="evenodd" clip-rule="evenodd" d="M3.93648 3.93648C0 7.87297 0 14.2086 0 26.88V29.12C0 41.7913 0 48.127 3.93648 52.0635C7.87296 56 14.2086 56 26.88 56H26.88H29.12H29.12C41.7914 56 48.127 56 52.0635 52.0635C56 48.127 56 41.7914 56 29.12V29.12V26.88V26.88C56 14.2086 56 7.87296 52.0635 3.93648C48.127 0 41.7913 0 29.12 0H26.88C14.2086 0 7.87297 0 3.93648 3.93648ZM9.44983 17.031C9.75316 31.591 17.0331 40.341 29.7964 40.341H30.5199V32.011C35.2099 32.4777 38.7563 35.9077 40.1796 40.341H46.8065C44.9865 33.7143 40.2029 30.051 37.2163 28.651C40.2029 26.9243 44.403 22.7244 45.4063 17.031H39.3861C38.0794 21.651 34.2066 25.851 30.5199 26.2477V17.031H24.4997V33.1777C20.7664 32.2443 16.0531 27.7177 15.8431 17.031H9.44983Z" fill="white"/>
</svg>
