<svg width="106" height="24" viewBox="0 0 106 24" fill="none" xmlns="http://www.w3.org/2000/svg">
<path d="M38.8229 8.11488C39.768 8.11488 40.6143 8.32647 41.3619 8.74964C42.1095 9.17282 42.6949 9.76526 43.1181 10.527C43.5413 11.2887 43.7529 12.1562 43.7529 13.1295C43.7529 14.1028 43.5131 14.9774 43.0335 15.7532C42.568 16.529 41.9191 17.1356 41.0869 17.5728C40.2546 17.996 39.3095 18.2076 38.2516 18.2076C37.3488 18.2076 36.5307 18.0454 35.7972 17.7209C35.0637 17.3824 34.443 16.8887 33.9352 16.2398C33.0748 15.1114 32.6445 13.5527 32.6445 11.5638C32.6445 9.37735 33.1241 7.64233 34.0833 6.3587C35.0566 5.07507 36.6717 4.33452 38.9287 4.13704C39.4224 4.09472 39.7962 4.02419 40.0501 3.92545C40.3181 3.82671 40.5085 3.6927 40.6214 3.52343C40.7342 3.34006 40.8189 3.08615 40.8753 2.76172L43.0123 2.95215C42.9559 3.8126 42.7443 4.48263 42.3775 4.96223C42.0249 5.42772 41.5665 5.75921 41.0022 5.95669C40.438 6.15417 39.7539 6.28818 38.9498 6.3587C38.0047 6.44334 37.2642 6.63377 36.7282 6.92999C36.1921 7.21211 35.8113 7.60002 35.5856 8.09372C35.3599 8.58742 35.2118 9.22924 35.1413 10.0192C35.5644 9.3844 36.0722 8.91186 36.6647 8.60153C37.2712 8.2771 37.9906 8.11488 38.8229 8.11488ZM38.2728 16.0282C39.1614 16.0282 39.8808 15.7673 40.4309 15.2454C40.9952 14.7094 41.2773 14.0111 41.2773 13.1507C41.2773 12.3043 40.9952 11.6202 40.4309 11.0983C39.8808 10.5622 39.1614 10.2942 38.2728 10.2942C37.37 10.2942 36.6365 10.5622 36.0722 11.0983C35.5221 11.6202 35.2471 12.3043 35.2471 13.1507C35.2471 14.0111 35.5221 14.7094 36.0722 15.2454C36.6365 15.7673 37.37 16.0282 38.2728 16.0282Z" fill="black"/>
<path d="M49.206 17.996H45.7572V6.99346H48.0846V15.1607H48.4232L52.528 6.99346H55.9768V17.996H53.6494V9.82874H53.3108L49.206 17.996Z" fill="black"/>
<path d="M64.9964 12.3889C65.603 12.5723 66.1037 12.8897 66.4987 13.3411C66.9077 13.7784 67.1123 14.3214 67.1123 14.9703C67.1123 15.5769 66.9218 16.127 66.541 16.6207C66.1742 17.1003 65.6382 17.4882 64.9329 17.7844C64.2417 18.0665 63.4448 18.2076 62.542 18.2076C61.343 18.2076 60.3133 17.9255 59.4528 17.3612C58.6065 16.797 58.0493 16.0494 57.7813 15.1184L60.0241 14.7376C60.2639 15.2313 60.5813 15.591 60.9762 15.8167C61.3712 16.0282 61.8861 16.134 62.5208 16.134C63.212 16.134 63.741 16.0141 64.1077 15.7743C64.4886 15.5345 64.679 15.2031 64.679 14.7799C64.679 13.9476 63.9596 13.5315 62.5208 13.5315H61.1455V11.4156H62.5208C63.1697 11.4156 63.6634 11.3098 64.0019 11.0983C64.3405 10.8726 64.5098 10.5693 64.5098 10.1884C64.5098 9.77937 64.3334 9.45493 63.9808 9.21513C63.6281 8.97533 63.1909 8.85544 62.6689 8.85544C62.147 8.85544 61.6745 8.98239 61.2513 9.23629C60.8422 9.4902 60.5249 9.83579 60.2992 10.2731L58.0563 9.89221C58.3808 8.87659 58.9591 8.10783 59.7914 7.58591C60.6377 7.04989 61.6251 6.78188 62.7536 6.78188C63.5576 6.78188 64.277 6.91588 64.9118 7.18389C65.5465 7.4519 66.0402 7.82571 66.3929 8.30531C66.7596 8.7849 66.943 9.32798 66.943 9.93453C66.943 10.5411 66.7596 11.063 66.3929 11.5003C66.0402 11.9376 65.5747 12.2338 64.9964 12.3889Z" fill="black"/>
<path d="M76.8 11.331V6.99346H79.2333V17.996H76.8V13.5527H71.87V17.996H69.4368V6.99346H71.87V11.331H76.8Z" fill="black"/>
<path d="M92.7701 12.3678C92.7701 12.5794 92.7559 12.8403 92.7277 13.1507H83.8834C83.9962 14.0111 84.3489 14.7023 84.9413 15.2242C85.5338 15.732 86.2884 15.9859 87.2053 15.9859C87.826 15.9859 88.3831 15.866 88.8768 15.6262C89.3847 15.3864 89.7726 15.062 90.0406 14.6529L92.3257 15.0338C91.9308 16.0494 91.2466 16.8323 90.2733 17.3824C89.3141 17.9325 88.2421 18.2076 87.0572 18.2076C85.9569 18.2076 84.9695 17.9678 84.095 17.4882C83.2345 16.9945 82.5574 16.3174 82.0637 15.457C81.5841 14.5824 81.3443 13.595 81.3443 12.4947C81.3443 11.3945 81.5841 10.4141 82.0637 9.55367C82.5574 8.67911 83.2345 8.00203 84.095 7.52243C84.9695 7.02873 85.9569 6.78188 87.0572 6.78188C88.1574 6.78188 89.1378 7.02873 89.9983 7.52243C90.8728 8.00203 91.5499 8.67206 92.0295 9.53251C92.5232 10.3789 92.7701 11.324 92.7701 12.3678ZM87.0572 8.89775C86.3237 8.89775 85.6819 9.10934 85.1318 9.53251C84.5957 9.95569 84.229 10.527 84.0315 11.2464H90.1252C89.9136 10.5411 89.5328 9.97685 88.9826 9.55367C88.4466 9.11639 87.8048 8.89775 87.0572 8.89775Z" fill="black"/>
<path d="M99.7653 18.2076C98.6651 18.2076 97.6777 17.9678 96.8031 17.4882C95.9285 16.9945 95.2444 16.3174 94.7507 15.457C94.2711 14.5824 94.0313 13.595 94.0313 12.4947C94.0313 11.3945 94.2711 10.4141 94.7507 9.55367C95.2444 8.67911 95.9285 8.00203 96.8031 7.52243C97.6777 7.02873 98.6651 6.78188 99.7653 6.78188C100.978 6.78188 102.05 7.08515 102.981 7.6917C103.927 8.28415 104.597 9.1305 104.992 10.2308L102.706 10.6116C102.467 10.132 102.093 9.7441 101.585 9.44788C101.091 9.15166 100.534 9.00355 99.9134 9.00355C98.926 9.00355 98.122 9.32798 97.5013 9.97685C96.8807 10.6257 96.5704 11.465 96.5704 12.4947C96.5704 13.5245 96.8807 14.3638 97.5013 15.0126C98.122 15.6615 98.926 15.9859 99.9134 15.9859C100.562 15.9859 101.141 15.8378 101.648 15.5416C102.156 15.2313 102.537 14.8293 102.791 14.3355L105.076 14.7164C104.681 15.8308 103.997 16.6912 103.024 17.2978C102.05 17.9043 100.964 18.2076 99.7653 18.2076Z" fill="black"/>
<path fill-rule="evenodd" clip-rule="evenodd" d="M1.68706 1.68706C0 3.37413 0 6.08942 0 11.52V12.48C0 17.9106 0 20.6259 1.68706 22.3129C3.37413 24 6.08942 24 11.52 24H12.48C17.9106 24 20.6259 24 22.3129 22.3129C24 20.6259 24 17.9106 24 12.48V11.52C24 6.08942 24 3.37413 22.3129 1.68706C20.6259 0 17.9106 0 12.48 0H11.52C6.08942 0 3.37413 0 1.68706 1.68706ZM4.05078 7.2998C4.18078 13.5398 7.30075 17.2898 12.7708 17.2898H13.0808V13.7198C15.0908 13.9198 16.6107 15.3898 17.2207 17.2898H20.0608C19.2808 14.4498 17.2307 12.8798 15.9507 12.2798C17.2307 11.5398 19.0307 9.7398 19.4607 7.2998H16.8806C16.3206 9.2798 14.6608 11.0798 13.0808 11.2498V7.2998H10.5007V14.2198C8.90073 13.8198 6.88077 11.8798 6.79077 7.2998H4.05078Z" fill="black"/>
</svg>
