<svg width="22" height="22" viewBox="0 0 22 22" fill="none" xmlns="http://www.w3.org/2000/svg">
<path fill-rule="evenodd" clip-rule="evenodd" d="M1.54648 1.54648C0 3.09295 0 5.58197 0 10.56V11.44C0 16.418 0 18.907 1.54648 20.4535C3.09295 22 5.58197 22 10.56 22H11.44C16.418 22 18.907 22 20.4535 20.4535C22 18.907 22 16.418 22 11.44V10.56C22 5.58197 22 3.09295 20.4535 1.54648C18.907 0 16.418 0 11.44 0H10.56C5.58197 0 3.09295 0 1.54648 1.54648ZM3.71243 6.69077C3.8316 12.4108 6.69157 15.8483 11.7057 15.8483H11.99V12.5758C13.8325 12.7591 15.2257 14.1066 15.7849 15.8483H18.3883C17.6733 13.2449 15.794 11.8057 14.6207 11.2557C15.794 10.5774 17.444 8.92743 17.8382 6.69077H15.4731C14.9598 8.50577 13.4383 10.1558 11.99 10.3116V6.69077H9.62489V13.0341C8.15822 12.6674 6.30659 10.8891 6.22409 6.69077H3.71243Z" fill="black"/>
</svg>
