<svg width="22" height="22" viewBox="0 0 22 22" fill="none" xmlns="http://www.w3.org/2000/svg">
<g clip-path="url(#clip0_58_1176)">
<path fill-rule="evenodd" clip-rule="evenodd" d="M22.0001 11.3298C17.5419 11.3854 15.0357 11.6903 13.3631 13.3629C11.6905 15.0355 11.3856 17.5417 11.33 21.9999C17.1456 21.8287 21.8289 17.1454 22.0001 11.3298ZM10.6703 21.9999C10.6147 17.5417 10.3098 15.0355 8.63716 13.3629C6.96453 11.6903 4.45831 11.3854 0.00012207 11.3298C0.171316 17.1454 4.85461 21.8287 10.6703 21.9999ZM22.0001 10.6701C21.8289 4.85445 17.1456 0.17119 11.33 0C11.3855 4.45815 11.6905 6.96435 13.3631 8.63697C15.0357 10.3096 17.5419 10.6145 22.0001 10.6701ZM10.6703 8.2764e-08C4.8546 0.171192 0.171318 4.85445 0.000122209 10.6701C4.45831 10.6145 6.96452 10.3096 8.63715 8.63698C10.3098 6.96436 10.6147 4.45816 10.6703 8.2764e-08Z" fill="black"/>
</g>
<defs>
<clipPath id="clip0_58_1176">
<rect width="22" height="22" fill="white"/>
</clipPath>
</defs>
</svg>
